<?xml version="1.0" encoding="UTF-8" standalone="no"?>
<svg
   xmlns:dc="http://purl.org/dc/elements/1.1/"
   xmlns:cc="http://creativecommons.org/ns#"
   xmlns:rdf="http://www.w3.org/1999/02/22-rdf-syntax-ns#"
   xmlns:svg="http://www.w3.org/2000/svg"
   xmlns="http://www.w3.org/2000/svg"
   viewBox="0 0 612.32001 264.48001"
   height="264.48001"
   width="612.32001"
   xml:space="preserve"
   id="svg2"
   version="1.1"><metadata
     id="metadata8"><rdf:RDF><cc:Work
         rdf:about=""><dc:format>image/svg+xml</dc:format><dc:type
           rdf:resource="http://purl.org/dc/dcmitype/StillImage" /><dc:title></dc:title></cc:Work></rdf:RDF></metadata><defs
     id="defs6"><clipPath
       id="clipPath18"
       clipPathUnits="userSpaceOnUse"><path
         style="clip-rule:evenodd"
         id="path16"
         d="M 0,4.5776e-5 H 459.24 V 198.36005 H 0 Z" /></clipPath></defs><g
     transform="matrix(1.3333333,0,0,-1.3333333,0,264.48)"
     id="g10"><g
       id="g12"><g
         clip-path="url(#clipPath18)"
         id="g14"><path
           id="path20"
           style="fill:#ffffff;fill-opacity:1;fill-rule:evenodd;stroke:none"
           d="M 0,1.5259e-5 H 459.24 V 198.36002 H 0 Z" /></g></g><path
       id="path22"
       style="fill:#0070c0;fill-opacity:1;fill-rule:evenodd;stroke:none"
       d="m 382.64,18.229 c -0.64,-0.057 -1.44,-0.136 -2.42,-0.236 -0.98,-0.1 -1.76,-0.24 -2.36,-0.421 -0.72,-0.219 -1.31,-0.554 -1.77,-1.006 -0.47,-0.452 -0.7,-1.083 -0.7,-1.892 0,-0.913 0.25,-1.603 0.77,-2.069 0.51,-0.467 1.26,-0.7 2.25,-0.7 0.85,0 1.62,0.183 2.3,0.55 0.69,0.366 1.33,0.816 1.93,1.349 z m -156.77,0 c -0.64,-0.057 -1.45,-0.136 -2.43,-0.236 -0.97,-0.1 -1.76,-0.24 -2.36,-0.421 -0.71,-0.219 -1.3,-0.554 -1.77,-1.006 -0.47,-0.452 -0.7,-1.083 -0.7,-1.892 0,-0.913 0.26,-1.603 0.77,-2.069 0.52,-0.467 1.27,-0.7 2.26,-0.7 0.85,0 1.61,0.183 2.3,0.55 0.68,0.366 1.33,0.816 1.93,1.349 z m -31.51,0 c -0.64,-0.057 -1.44,-0.136 -2.42,-0.236 -0.98,-0.1 -1.76,-0.24 -2.36,-0.421 -0.72,-0.219 -1.31,-0.554 -1.78,-1.006 -0.46,-0.452 -0.7,-1.083 -0.7,-1.892 0,-0.913 0.26,-1.603 0.78,-2.069 0.51,-0.467 1.26,-0.7 2.25,-0.7 0.85,0 1.62,0.183 2.3,0.55 0.69,0.366 1.33,0.816 1.93,1.349 z m 43.65,5.624 c -1.36,0 -2.43,-0.499 -3.21,-1.499 -0.78,-0.999 -1.17,-2.431 -1.17,-4.296 0,-1.77 0.29,-3.117 0.89,-4.04 0.59,-0.923 1.56,-1.385 2.89,-1.385 0.7,0 1.41,0.138 2.15,0.414 0.74,0.276 1.4,0.662 1.99,1.156 v 8.751 c -0.66,0.323 -1.28,0.554 -1.85,0.692 -0.56,0.138 -1.13,0.207 -1.69,0.207 z m 175.49,0.1 c -1.4,0 -2.48,-0.502 -3.24,-1.506 -0.75,-1.004 -1.13,-2.538 -1.13,-4.604 0,-1.998 0.38,-3.514 1.13,-4.546 0.76,-1.033 1.84,-1.549 3.24,-1.549 1.38,0 2.45,0.507 3.2,1.52 0.76,1.014 1.14,2.539 1.14,4.575 0,2.066 -0.38,3.6 -1.13,4.604 -0.75,1.004 -1.82,1.506 -3.21,1.506 z m -290.3,0 c -1.4,0 -2.48,-0.502 -3.24,-1.506 -0.75,-1.004 -1.13,-2.538 -1.13,-4.604 0,-1.998 0.38,-3.514 1.13,-4.546 0.76,-1.033 1.84,-1.549 3.24,-1.549 1.38,0 2.45,0.507 3.21,1.52 0.75,1.014 1.13,2.539 1.13,4.575 0,2.066 -0.37,3.6 -1.13,4.604 -0.75,1.004 -1.82,1.506 -3.21,1.506 z m 171.89,0.1 c -0.71,0 -1.32,-0.107 -1.82,-0.321 -0.5,-0.214 -0.95,-0.526 -1.36,-0.935 -0.4,-0.419 -0.71,-0.883 -0.92,-1.392 -0.21,-0.509 -0.34,-1.102 -0.4,-1.777 h 8.44 c -0.01,0.723 -0.1,1.346 -0.25,1.87 -0.15,0.523 -0.37,0.966 -0.66,1.327 -0.31,0.4 -0.72,0.705 -1.21,0.914 -0.49,0.209 -1.09,0.314 -1.82,0.314 z m -40.5,0 c -0.72,0 -1.33,-0.107 -1.83,-0.321 -0.5,-0.214 -0.95,-0.526 -1.36,-0.935 -0.4,-0.419 -0.7,-0.883 -0.91,-1.392 -0.21,-0.509 -0.35,-1.102 -0.4,-1.777 h 8.44 c -0.02,0.723 -0.11,1.346 -0.26,1.87 -0.15,0.523 -0.37,0.966 -0.66,1.327 -0.31,0.4 -0.71,0.705 -1.2,0.914 -0.49,0.209 -1.1,0.314 -1.82,0.314 z m -168.032,0 c -0.714,0 -1.321,-0.107 -1.821,-0.321 -0.5,-0.214 -0.955,-0.526 -1.364,-0.935 -0.4,-0.419 -0.705,-0.883 -0.914,-1.392 -0.21,-0.509 -0.343,-1.102 -0.4,-1.777 h 8.442 c -0.019,0.723 -0.105,1.346 -0.257,1.87 -0.153,0.523 -0.372,0.966 -0.657,1.327 -0.315,0.4 -0.717,0.705 -1.207,0.914 -0.491,0.209 -1.098,0.314 -1.822,0.314 z m -56.259,0 c -0.714,0 -1.321,-0.107 -1.821,-0.321 -0.5,-0.214 -0.955,-0.526 -1.364,-0.935 -0.4,-0.419 -0.705,-0.883 -0.915,-1.392 -0.209,-0.509 -0.342,-1.102 -0.4,-1.777 h 8.443 c -0.019,0.723 -0.105,1.346 -0.258,1.87 -0.152,0.523 -0.371,0.966 -0.657,1.327 -0.314,0.4 -0.716,0.705 -1.207,0.914 -0.49,0.209 -1.097,0.314 -1.821,0.314 z m 392.941,1.77 h 2.68 v -2.37 c 0.98,0.866 1.84,1.478 2.57,1.835 0.72,0.357 1.43,0.535 2.12,0.535 0.27,0 0.48,-0.007 0.62,-0.021 0.14,-0.015 0.29,-0.036 0.46,-0.065 v -2.798 h -0.14 c -0.2,0.058 -0.41,0.093 -0.64,0.108 -0.22,0.014 -0.49,0.021 -0.8,0.021 -0.73,0 -1.45,-0.157 -2.16,-0.471 -0.71,-0.314 -1.39,-0.78 -2.03,-1.399 V 9.8782 h -2.68 z m -353.312,0 h 2.686 v -2.37 c 0.981,0.866 1.836,1.478 2.564,1.835 0.729,0.357 1.436,0.535 2.121,0.535 0.276,0 0.484,-0.007 0.622,-0.021 0.138,-0.015 0.293,-0.036 0.464,-0.065 v -2.798 h -0.143 c -0.2,0.058 -0.412,0.093 -0.636,0.108 -0.223,0.014 -0.492,0.021 -0.807,0.021 -0.723,0 -1.442,-0.157 -2.157,-0.471 -0.714,-0.314 -1.39,-0.78 -2.028,-1.399 V 9.8782 h -2.686 z m -16.616,0 h 2.685 v -9.079 c 0,-0.847 0.031,-1.549 0.093,-2.105 0.062,-0.557 0.202,-1.045 0.421,-1.463 0.219,-0.41 0.517,-0.709 0.893,-0.9 0.376,-0.19 0.917,-0.285 1.621,-0.285 0.657,0 1.357,0.185 2.1,0.557 0.743,0.371 1.424,0.828 2.043,1.37 v 11.905 h 2.685 V 9.8782 H 63.168 V 11.648 C 62.339,10.925 61.554,10.375 60.811,9.9996 60.068,9.6236 59.24,9.4357 58.325,9.4357 c -0.695,0 -1.35,0.1142 -1.964,0.3426 -0.614,0.2287 -1.15,0.5897 -1.607,1.0847 -0.457,0.495 -0.812,1.118 -1.064,1.87 -0.252,0.752 -0.378,1.666 -0.378,2.741 z m -7.046,0.371 c 0.876,0 1.721,-0.124 2.535,-0.371 0.815,-0.247 1.541,-0.533 2.179,-0.856 v -3.012 h -0.157 c -0.191,0.161 -0.436,0.347 -0.736,0.556 -0.3,0.21 -0.664,0.424 -1.093,0.643 -0.371,0.19 -0.809,0.357 -1.314,0.499 -0.505,0.143 -0.99,0.214 -1.457,0.214 -1.39,0 -2.507,-0.525 -3.35,-1.577 -0.842,-1.052 -1.264,-2.539 -1.264,-4.461 0,-1.884 0.407,-3.352 1.222,-4.404 0.814,-1.051 1.945,-1.577 3.392,-1.577 0.876,0 1.71,0.181 2.5,0.543 0.79,0.361 1.49,0.828 2.1,1.398 h 0.157 v -3.011 c -0.267,-0.124 -0.6,-0.274 -1,-0.45 C 49.58,10.152 49.218,10.021 48.894,9.9353 48.437,9.802 48.028,9.6997 47.666,9.6284 47.304,9.5571 46.837,9.5213 46.266,9.5213 c -1.095,0 -2.1,0.169 -3.014,0.5067 -0.914,0.338 -1.7,0.849 -2.357,1.535 -0.657,0.685 -1.167,1.548 -1.529,2.59 -0.361,1.042 -0.542,2.268 -0.542,3.676 0,1.399 0.188,2.608 0.564,3.626 0.376,1.018 0.878,1.875 1.507,2.569 0.628,0.695 1.412,1.23 2.35,1.606 0.938,0.376 1.945,0.564 3.021,0.564 z m 332.524,0.014 c 1.09,0 2.01,-0.085 2.77,-0.257 0.75,-0.171 1.42,-0.48 2.02,-0.927 0.59,-0.438 1.02,-1.004 1.3,-1.699 0.29,-0.695 0.43,-1.542 0.43,-2.541 V 9.8782 h -2.67 v 1.6988 c -0.22,-0.162 -0.51,-0.388 -0.88,-0.678 -0.36,-0.29 -0.72,-0.521 -1.06,-0.692 -0.48,-0.2479 -0.94,-0.4382 -1.38,-0.5715 -0.44,-0.1332 -1.06,-0.1998 -1.86,-0.1998 -0.66,0 -1.28,0.1237 -1.87,0.3712 -0.6,0.2471 -1.11,0.5951 -1.56,1.0421 -0.43,0.438 -0.77,0.978 -1.03,1.62 -0.26,0.642 -0.39,1.32 -0.39,2.034 0,1.104 0.24,2.044 0.7,2.819 0.47,0.776 1.21,1.392 2.22,1.849 0.89,0.409 1.95,0.692 3.17,0.849 1.22,0.157 2.53,0.274 3.94,0.35 v 0.514 c 0,0.628 -0.09,1.135 -0.28,1.52 -0.19,0.386 -0.46,0.683 -0.8,0.892 -0.35,0.219 -0.77,0.364 -1.26,0.436 -0.5,0.071 -1.01,0.107 -1.53,0.107 -0.62,0 -1.35,-0.093 -2.18,-0.278 -0.84,-0.186 -1.68,-0.455 -2.52,-0.807 h -0.16 v 2.726 c 0.5,0.143 1.21,0.3 2.13,0.471 0.93,0.172 1.84,0.257 2.75,0.257 z m -156.78,0 c 1.09,0 2.02,-0.085 2.77,-0.257 0.75,-0.171 1.43,-0.48 2.03,-0.927 0.58,-0.438 1.01,-1.004 1.3,-1.699 0.28,-0.695 0.43,-1.542 0.43,-2.541 V 9.8782 h -2.67 v 1.6988 c -0.22,-0.162 -0.52,-0.388 -0.88,-0.678 -0.37,-0.29 -0.72,-0.521 -1.07,-0.692 -0.47,-0.2479 -0.93,-0.4382 -1.38,-0.5715 -0.44,-0.1332 -1.06,-0.1998 -1.86,-0.1998 -0.66,0 -1.28,0.1237 -1.87,0.3712 -0.59,0.2471 -1.11,0.5951 -1.56,1.0421 -0.43,0.438 -0.77,0.978 -1.03,1.62 -0.25,0.642 -0.38,1.32 -0.38,2.034 0,1.104 0.23,2.044 0.7,2.819 0.47,0.776 1.2,1.392 2.21,1.849 0.9,0.409 1.95,0.692 3.17,0.849 1.22,0.157 2.54,0.274 3.95,0.35 v 0.514 c 0,0.628 -0.1,1.135 -0.29,1.52 -0.19,0.386 -0.46,0.683 -0.8,0.892 -0.34,0.219 -0.76,0.364 -1.26,0.436 -0.49,0.071 -1,0.107 -1.52,0.107 -0.62,0 -1.35,-0.093 -2.19,-0.278 -0.84,-0.186 -1.68,-0.455 -2.51,-0.807 h -0.16 v 2.726 c 0.49,0.143 1.2,0.3 2.13,0.471 0.92,0.172 1.83,0.257 2.74,0.257 z m -31.51,0 c 1.1,0 2.02,-0.085 2.78,-0.257 0.75,-0.171 1.42,-0.48 2.02,-0.927 0.58,-0.438 1.02,-1.004 1.3,-1.699 0.29,-0.695 0.43,-1.542 0.43,-2.541 V 9.8782 h -2.67 v 1.6988 c -0.22,-0.162 -0.51,-0.388 -0.88,-0.678 -0.36,-0.29 -0.72,-0.521 -1.06,-0.692 -0.48,-0.2479 -0.94,-0.4382 -1.38,-0.5715 -0.44,-0.1332 -1.06,-0.1998 -1.86,-0.1998 -0.66,0 -1.29,0.1237 -1.88,0.3712 -0.59,0.2471 -1.1,0.5951 -1.55,1.0421 -0.43,0.438 -0.77,0.978 -1.03,1.62 -0.26,0.642 -0.39,1.32 -0.39,2.034 0,1.104 0.24,2.044 0.7,2.819 0.47,0.776 1.21,1.392 2.22,1.849 0.89,0.409 1.95,0.692 3.17,0.849 1.22,0.157 2.53,0.274 3.94,0.35 v 0.514 c 0,0.628 -0.09,1.135 -0.28,1.52 -0.2,0.386 -0.46,0.683 -0.8,0.892 -0.35,0.219 -0.77,0.364 -1.26,0.436 -0.5,0.071 -1.01,0.107 -1.53,0.107 -0.62,0 -1.35,-0.093 -2.19,-0.278 -0.83,-0.186 -1.67,-0.455 -2.51,-0.807 h -0.16 v 2.726 c 0.5,0.143 1.21,0.3 2.13,0.471 0.93,0.172 1.84,0.257 2.74,0.257 z m 250.29,0.058 c 0.95,0 1.78,-0.215 2.51,-0.643 0.73,-0.428 1.28,-1.132 1.67,-2.112 0.81,0.904 1.6,1.589 2.37,2.055 0.77,0.466 1.61,0.7 2.51,0.7 0.69,0 1.31,-0.107 1.87,-0.322 0.56,-0.214 1.05,-0.559 1.47,-1.035 0.43,-0.485 0.76,-1.089 1,-1.812 0.23,-0.724 0.35,-1.633 0.35,-2.727 V 9.8782 h -2.69 V 19.1 c 0,0.732 -0.03,1.41 -0.08,2.034 -0.06,0.623 -0.18,1.111 -0.36,1.463 -0.19,0.381 -0.46,0.661 -0.82,0.842 -0.35,0.181 -0.82,0.271 -1.42,0.271 -0.56,0 -1.15,-0.169 -1.78,-0.506 -0.64,-0.338 -1.29,-0.826 -1.97,-1.464 0.01,-0.161 0.02,-0.354 0.04,-0.578 0.01,-0.223 0.02,-0.487 0.02,-0.792 V 9.8782 h -2.69 V 19.1 c 0,0.732 -0.02,1.41 -0.08,2.034 -0.06,0.623 -0.18,1.111 -0.36,1.463 -0.19,0.381 -0.46,0.661 -0.81,0.842 -0.35,0.181 -0.83,0.271 -1.43,0.271 -0.58,0 -1.19,-0.18 -1.83,-0.542 -0.64,-0.362 -1.26,-0.823 -1.86,-1.385 V 9.8782 h -2.68 V 25.823 h 2.68 v -1.77 c 0.71,0.704 1.41,1.249 2.1,1.634 0.69,0.386 1.45,0.579 2.27,0.579 z m -27.29,0 c 2.15,0 3.87,-0.736 5.17,-2.206 1.29,-1.47 1.94,-3.542 1.94,-6.217 0,-2.683 -0.65,-4.755 -1.94,-6.216 -1.3,-1.461 -3.02,-2.1913 -5.17,-2.1913 -2.22,0 -3.97,0.7543 -5.24,2.2623 -1.27,1.509 -1.9,3.557 -1.9,6.145 0,2.665 0.65,4.735 1.96,6.21 1.31,1.475 3.03,2.213 5.18,2.213 z m -101.26,0 c 1.58,0 2.8,-0.517 3.69,-1.549 0.89,-1.033 1.33,-2.529 1.33,-4.49 V 9.8782 h -2.69 v 9.0788 c 0,0.733 -0.03,1.415 -0.1,2.048 -0.08,0.633 -0.21,1.14 -0.41,1.521 -0.22,0.399 -0.52,0.697 -0.92,0.892 -0.39,0.195 -0.92,0.292 -1.6,0.292 -0.66,0 -1.35,-0.178 -2.06,-0.535 -0.71,-0.357 -1.4,-0.821 -2.08,-1.392 V 9.8782 h -2.68 V 25.823 h 2.68 v -1.77 c 0.8,0.714 1.59,1.261 2.37,1.642 0.78,0.38 1.61,0.571 2.47,0.571 z m -16.99,0 c 0.99,0 1.87,-0.143 2.63,-0.429 0.76,-0.285 1.43,-0.733 2,-1.342 0.57,-0.609 1.01,-1.353 1.31,-2.233 0.31,-0.881 0.46,-1.959 0.46,-3.234 v -1.456 h -11.06 c 0,-1.855 0.47,-3.273 1.4,-4.254 0.94,-0.98 2.23,-1.47 3.87,-1.47 0.59,0 1.17,0.067 1.74,0.2 0.57,0.133 1.08,0.305 1.54,0.514 0.48,0.219 0.89,0.43 1.22,0.635 0.34,0.205 0.61,0.397 0.83,0.578 h 0.16 v -2.926 c -0.32,-0.124 -0.71,-0.278 -1.17,-0.464 -0.47,-0.186 -0.89,-0.331 -1.26,-0.4354 -0.52,-0.1427 -1,-0.2522 -1.42,-0.3283 -0.42,-0.0762 -0.96,-0.1142 -1.61,-0.1142 -2.54,0 -4.51,0.7159 -5.92,2.1479 -1.4,1.433 -2.11,3.467 -2.11,6.103 0,2.598 0.69,4.665 2.05,6.202 1.36,1.537 3.14,2.306 5.34,2.306 z m -23.98,0 c 0.94,0 1.78,-0.215 2.5,-0.643 0.73,-0.428 1.29,-1.132 1.67,-2.112 0.81,0.904 1.6,1.589 2.37,2.055 0.77,0.466 1.61,0.7 2.51,0.7 0.69,0 1.31,-0.107 1.87,-0.322 0.57,-0.214 1.06,-0.559 1.48,-1.035 0.42,-0.485 0.76,-1.089 0.99,-1.812 0.23,-0.724 0.35,-1.633 0.35,-2.727 V 9.8782 h -2.69 V 19.1 c 0,0.732 -0.03,1.41 -0.08,2.034 -0.06,0.623 -0.18,1.111 -0.36,1.463 -0.19,0.381 -0.46,0.661 -0.81,0.842 -0.36,0.181 -0.83,0.271 -1.43,0.271 -0.55,0 -1.15,-0.169 -1.78,-0.506 -0.63,-0.338 -1.29,-0.826 -1.96,-1.464 0,-0.161 0.02,-0.354 0.03,-0.578 0.02,-0.223 0.02,-0.487 0.02,-0.792 V 9.8782 h -2.68 V 19.1 c 0,0.732 -0.03,1.41 -0.09,2.034 -0.06,0.623 -0.18,1.111 -0.36,1.463 -0.19,0.381 -0.46,0.661 -0.81,0.842 -0.35,0.181 -0.83,0.271 -1.43,0.271 -0.58,0 -1.19,-0.18 -1.83,-0.542 -0.64,-0.362 -1.25,-0.823 -1.85,-1.385 V 9.8782 h -2.69 V 25.823 h 2.69 v -1.77 c 0.7,0.704 1.4,1.249 2.09,1.634 0.69,0.386 1.45,0.579 2.28,0.579 z m -16.53,0 c 0.99,0 1.87,-0.143 2.63,-0.429 0.76,-0.285 1.43,-0.733 2,-1.342 0.57,-0.609 1.01,-1.353 1.32,-2.233 0.3,-0.881 0.45,-1.959 0.45,-3.234 v -1.456 h -11.05 c 0,-1.855 0.46,-3.273 1.4,-4.254 0.93,-0.98 2.22,-1.47 3.87,-1.47 0.59,0 1.17,0.067 1.73,0.2 0.57,0.133 1.08,0.305 1.54,0.514 0.48,0.219 0.89,0.43 1.23,0.635 0.33,0.205 0.61,0.397 0.83,0.578 h 0.15 v -2.926 c -0.31,-0.124 -0.7,-0.278 -1.17,-0.464 -0.47,-0.186 -0.88,-0.331 -1.26,-0.4354 -0.52,-0.1427 -0.99,-0.2522 -1.42,-0.3283 -0.42,-0.0762 -0.96,-0.1142 -1.6,-0.1142 -2.55,0 -4.52,0.7159 -5.93,2.1479 -1.4,1.433 -2.1,3.467 -2.1,6.103 0,2.598 0.68,4.665 2.04,6.202 1.36,1.537 3.14,2.306 5.34,2.306 z m -17.16,0 c 0.83,0 1.55,-0.098 2.15,-0.293 0.61,-0.195 1.21,-0.474 1.82,-0.835 l 0.16,0.685 h 2.53 V 11.691 c 0,-2.7026 -0.59,-4.6867 -1.77,-5.9525 -1.18,-1.2656 -2.99,-1.8985 -5.42,-1.8985 -0.78,0 -1.57,0.0619 -2.39,0.1856 -0.81,0.1237 -1.57,0.2902 -2.28,0.4997 V 7.323 h 0.15 c 0.18,-0.0761 0.44,-0.1784 0.8,-0.3069 0.35,-0.1284 0.75,-0.2498 1.2,-0.364 0.49,-0.1237 0.95,-0.2236 1.37,-0.2997 0.42,-0.0762 0.87,-0.1142 1.37,-0.1142 0.83,0 1.53,0.1094 2.11,0.3283 0.57,0.2189 1.02,0.5234 1.35,0.9136 0.3,0.3901 0.51,0.8422 0.64,1.3561 0.12,0.5139 0.18,1.0991 0.18,1.7558 v 1.399 c -0.72,-0.628 -1.43,-1.092 -2.12,-1.392 -0.7,-0.3 -1.57,-0.45 -2.62,-0.45 -1.82,0 -3.26,0.676 -4.34,2.027 -1.08,1.352 -1.61,3.293 -1.61,5.824 0,1.323 0.18,2.496 0.55,3.519 0.37,1.023 0.87,1.892 1.5,2.605 0.6,0.686 1.31,1.214 2.13,1.585 0.82,0.371 1.67,0.557 2.54,0.557 z m -29.6,0 c 1.57,0 2.8,-0.517 3.68,-1.549 0.89,-1.033 1.33,-2.529 1.33,-4.49 V 9.8782 h -2.68 v 9.0788 c 0,0.733 -0.04,1.415 -0.11,2.048 -0.07,0.633 -0.21,1.14 -0.41,1.521 -0.22,0.399 -0.52,0.697 -0.91,0.892 -0.39,0.195 -0.93,0.292 -1.6,0.292 -0.67,0 -1.36,-0.178 -2.07,-0.535 -0.71,-0.357 -1.4,-0.821 -2.07,-1.392 V 9.8782 h -2.69 V 25.823 h 2.69 v -1.77 c 0.8,0.714 1.59,1.261 2.37,1.642 0.78,0.38 1.6,0.571 2.47,0.571 z m -84.78,0 c 2.15,0 3.88,-0.736 5.17,-2.206 1.3,-1.47 1.94,-3.542 1.94,-6.217 0,-2.683 -0.64,-4.755 -1.94,-6.216 -1.29,-1.461 -3.02,-2.1913 -5.17,-2.1913 -2.22,0 -3.96,0.7543 -5.24,2.2623 -1.27,1.509 -1.9,3.557 -1.9,6.145 0,2.665 0.65,4.735 1.96,6.21 1.31,1.475 3.04,2.213 5.18,2.213 z m -36.485,0 c 0.991,0 1.867,-0.143 2.629,-0.429 0.762,-0.285 1.428,-0.733 2,-1.342 0.571,-0.609 1.009,-1.353 1.314,-2.233 0.305,-0.881 0.457,-1.959 0.457,-3.234 V 17.572 H 82.059 c 0,-1.855 0.466,-3.273 1.4,-4.254 0.933,-0.98 2.223,-1.47 3.871,-1.47 0.59,0 1.169,0.067 1.735,0.2 0.567,0.133 1.079,0.305 1.536,0.514 0.486,0.219 0.895,0.43 1.228,0.635 0.334,0.205 0.61,0.397 0.829,0.578 h 0.157 V 10.849 C 92.501,10.725 92.11,10.571 91.644,10.385 91.177,10.199 90.758,10.054 90.387,9.9496 89.863,9.8069 89.389,9.6974 88.965,9.6213 88.541,9.5451 88.006,9.5071 87.358,9.5071 c -2.542,0 -4.516,0.7159 -5.921,2.1479 -1.404,1.433 -2.107,3.467 -2.107,6.103 0,2.598 0.681,4.665 2.043,6.202 1.362,1.537 3.143,2.306 5.342,2.306 z m -56.259,0 c 0.991,0 1.867,-0.143 2.629,-0.429 0.761,-0.285 1.428,-0.733 1.999,-1.342 0.572,-0.609 1.01,-1.353 1.315,-2.233 0.304,-0.881 0.457,-1.959 0.457,-3.234 V 17.572 H 25.799 c 0,-1.855 0.467,-3.273 1.4,-4.254 0.934,-0.98 2.224,-1.47 3.871,-1.47 0.591,0 1.169,0.067 1.736,0.2 0.567,0.133 1.079,0.305 1.536,0.514 0.485,0.219 0.895,0.43 1.228,0.635 0.333,0.205 0.61,0.397 0.829,0.578 h 0.157 V 10.849 C 36.241,10.725 35.851,10.571 35.384,10.385 34.918,10.199 34.499,10.054 34.127,9.9496 33.604,9.8069 33.13,9.6974 32.706,9.6213 32.282,9.5451 31.747,9.5071 31.099,9.5071 c -2.543,0 -4.516,0.7159 -5.921,2.1479 -1.405,1.433 -2.107,3.467 -2.107,6.103 0,2.598 0.681,4.665 2.043,6.202 1.362,1.537 3.142,2.306 5.342,2.306 z m 312.864,0.899 v -6.367 h 0.37 c 0.51,0 0.98,0.005 1.43,0.015 0.45,0.009 0.84,0.042 1.17,0.1 0.29,0.047 0.59,0.14 0.91,0.278 0.32,0.138 0.56,0.293 0.74,0.464 0.36,0.352 0.6,0.718 0.73,1.099 0.13,0.381 0.19,0.894 0.19,1.542 0,0.599 -0.14,1.115 -0.42,1.548 -0.29,0.433 -0.63,0.731 -1.03,0.893 -0.51,0.218 -0.99,0.345 -1.45,0.378 -0.46,0.033 -1.09,0.05 -1.88,0.05 z m 45.58,3.24 h 2.69 v -4.582 h 4.94 v -2.227 h -4.94 v -7.58 c 0,-0.809 0.01,-1.432 0.04,-1.87 0.03,-0.437 0.14,-0.847 0.33,-1.227 0.16,-0.333 0.42,-0.583 0.78,-0.75 0.37,-0.166 0.86,-0.249 1.48,-0.249 0.43,0 0.86,0.064 1.27,0.192 0.41,0.129 0.7,0.236 0.88,0.321 h 0.16 v -2.412 c -0.5,-0.1428 -1.02,-0.2546 -1.54,-0.3355 -0.51,-0.0809 -0.99,-0.1214 -1.43,-0.1214 -1.47,0 -2.61,0.4164 -3.43,1.2489 -0.82,0.833 -1.23,2.149 -1.23,3.947 v 8.836 h -1.81 v 2.227 h 1.81 z m -68.26,0 h 2.69 v -4.582 h 4.94 v -2.227 h -4.94 v -7.58 c 0,-0.809 0.01,-1.432 0.04,-1.87 0.03,-0.437 0.14,-0.847 0.33,-1.227 0.16,-0.333 0.42,-0.583 0.78,-0.75 0.37,-0.166 0.86,-0.249 1.47,-0.249 0.44,0 0.87,0.064 1.28,0.192 0.41,0.129 0.7,0.236 0.88,0.321 h 0.16 v -2.412 c -0.51,-0.1428 -1.02,-0.2546 -1.54,-0.3355 -0.52,-0.0809 -0.99,-0.1214 -1.43,-0.1214 -1.47,0 -2.61,0.4164 -3.43,1.2489 -0.82,0.833 -1.23,2.149 -1.23,3.947 v 8.836 h -1.81 v 2.227 h 1.81 z m 36.84,0.728 h 5.35 V 13.932 h 8.85 V 9.8782 h -14.2 z m -19.5,0 h 8.26 c 1.22,0 2.28,-0.112 3.17,-0.335 0.89,-0.224 1.7,-0.578 2.43,-1.064 0.8,-0.533 1.41,-1.244 1.85,-2.134 0.44,-0.89 0.66,-1.948 0.66,-3.176 0,-0.99 -0.16,-1.932 -0.47,-2.826 -0.32,-0.895 -0.77,-1.642 -1.36,-2.241 -0.36,-0.372 -0.76,-0.714 -1.19,-1.028 -0.43,-0.314 -0.91,-0.581 -1.44,-0.8 -0.52,-0.218 -1.09,-0.39 -1.7,-0.513 -0.62,-0.124 -1.31,-0.186 -2.07,-0.186 h -2.8 V 9.8782 h -5.34 z m -178.53,0 h 6.16 l 4.71,-10.492 4.7,10.492 h 6.16 V 9.8782 h -5.32 V 23.967 l -3.87,-9.093 h -3.64 l -3.87,9.093 V 9.8782 h -5.03 z m -28.47,0 h 17.11 v -2.512 h -7.14 V 9.8782 h -2.83 V 28.621 h -7.14 z m -28.65,0 h 11.46 v -3.711 h -3.06 V 13.59 h 3.06 V 9.8782 H 102.33 V 13.59 h 3.06 v 13.832 h -3.06 z m -88.841,0.386 c 1.266,0 2.526,-0.129 3.778,-0.386 1.252,-0.257 2.374,-0.604 3.364,-1.042 V 25.238 H 20.16 c -0.791,0.675 -1.755,1.246 -2.893,1.713 -1.138,0.466 -2.307,0.699 -3.507,0.699 -0.466,0 -0.886,-0.033 -1.257,-0.1 -0.371,-0.066 -0.762,-0.195 -1.171,-0.385 -0.334,-0.152 -0.622,-0.378 -0.864,-0.678 -0.243,-0.3 -0.365,-0.635 -0.365,-1.007 0,-0.542 0.193,-0.973 0.579,-1.291 0.386,-0.319 1.131,-0.607 2.235,-0.864 0.715,-0.162 1.403,-0.319 2.064,-0.471 0.662,-0.152 1.369,-0.362 2.122,-0.628 1.476,-0.533 2.573,-1.249 3.292,-2.149 0.719,-0.899 1.079,-2.086 1.079,-3.561 0,-2.113 -0.831,-3.811 -2.493,-5.096 -1.662,-1.285 -3.907,-1.9272 -6.735,-1.9272 -1.628,0 -3.0593,0.1571 -4.2926,0.4711 C 6.7203,10.278 5.5751,10.668 4.518,11.134 v 5.054 h 0.4857 c 1.0666,-0.904 2.2427,-1.599 3.5283,-2.084 1.2856,-0.486 2.533,-0.728 3.743,-0.728 0.304,0 0.707,0.033 1.207,0.099 0.5,0.067 0.902,0.172 1.207,0.314 0.371,0.162 0.685,0.388 0.942,0.679 0.258,0.29 0.386,0.673 0.386,1.149 0,0.533 -0.209,0.966 -0.628,1.299 -0.419,0.333 -0.919,0.575 -1.5,0.728 -0.724,0.19 -1.498,0.371 -2.322,0.542 -0.823,0.171 -1.5923,0.381 -2.3065,0.628 -1.6475,0.581 -2.8283,1.361 -3.5426,2.341 -0.7142,0.98 -1.0713,2.208 -1.0713,3.683 0,1.989 0.8427,3.6 2.5284,4.832 1.6855,1.232 3.79,1.849 6.314,1.849 z m 390.631,0.713 c 0.5,0 0.99,-0.026 1.46,-0.078 0.48,-0.053 0.91,-0.112 1.3,-0.179 V 29.52 h -0.14 c -0.24,0.086 -0.58,0.169 -1.03,0.25 -0.45,0.081 -0.85,0.121 -1.2,0.121 -1.13,0 -1.94,-0.254 -2.42,-0.763 -0.48,-0.51 -0.72,-1.43 -0.72,-2.763 v -0.542 h 4.44 v -2.227 h -4.36 V 9.8782 h -2.68 V 23.596 h -1.82 v 2.227 h 1.82 v 0.528 c 0,1.923 0.46,3.383 1.38,4.382 0.93,1 2.25,1.499 3.97,1.499 z M 282.46,91.245 V 40.818 h -20.09 v 36.58 z m -185.394,18.715 2.227,-2.43 c 4.797,-6.42 7.207,-14.329 7.207,-23.724 0,-5.881 -1.2,-11.694 -3.61,-17.439 C 100.49,60.622 97.128,55.755 92.799,51.768 87.929,47.374 82.434,43.995 76.313,41.629 70.191,39.263 62.531,38.08 53.332,38.08 42.375,38.08 33.058,39.213 25.381,41.477 17.704,43.741 10.484,46.529 3.72,49.841 V 74.985 H 5.1404 C 11.769,68.767 19.277,63.951 27.664,60.538 c 8.387,-3.414 16.47,-5.121 24.248,-5.121 11.093,0 19.48,2.315 25.161,6.945 5.682,4.63 8.523,10.731 8.523,18.301 0,3.008 -0.372,5.737 -1.116,8.187 l -2.128,4.14 z m 291.654,0.5 V 61.532 h 66.8 V 41.225 H 388.72 368.4 V 61.532 96.443 L 369.81,97 c 3.83,1.737 7.46,3.86 10.87,6.33 z M 153,113.21 171.77,94.441 V 40.818 H 153 Z m -37.33,25.23 h 20.32 V 40.625 H 115.67 Z M 153,191.78 h 27.39 l 37.75,-84.05 36.42,84.05 h 27.9 V 116.67 L 262.37,102.82 V 170.9 L 223.01,82.386 H 210.83 L 171.77,170.9 V 123.51 L 153,142.04 Z m 148.38,0.49 h 37.94 c 8.93,0 16.54,-0.75 22.83,-2.23 6.29,-1.49 11.84,-3.89 16.64,-7.2 5.62,-3.86 10.01,-8.74 13.19,-14.65 3.18,-5.92 4.77,-13.07 4.77,-21.45 0,-6.55 -1.17,-12.75 -3.5,-18.6 -2.33,-5.85 -5.56,-10.83 -9.69,-14.96 -5.21,-5.13 -11.33,-9.02 -18.36,-11.66 -7.04,-2.631 -15.93,-3.949 -26.69,-3.949 h -17.04 v -56.27 h -20.09 v 62.989 l 20.09,13.84 v -3.43 h 13.69 c 8.12,0 14.68,0.66 19.69,1.98 5,1.32 9.16,3.67 12.48,7.05 2.97,3.04 5.14,6.35 6.49,9.93 1.35,3.59 2.03,7.78 2.03,12.58 0,5.2 -0.9,9.73 -2.69,13.58 -1.79,3.85 -4.51,7 -8.17,9.43 -3.18,2.1 -6.88,3.58 -11.11,4.46 -4.22,0.88 -9.48,1.32 -15.77,1.32 h -16.64 v -31.48 l -20.09,-13.84 z m -245.714,2.25 c 8.455,0 16.453,-0.84 23.995,-2.53 7.541,-1.69 14.525,-4.09 20.949,-7.2 v -24.03 h -1.52 c -4.803,4.39 -10.958,8.23 -18.466,11.51 -7.507,3.27 -15.387,4.91 -23.639,4.91 -9.334,0 -16.876,-2.18 -22.625,-6.54 -5.749,-4.36 -8.624,-10.08 -8.624,-17.18 0,-6.42 1.691,-11.53 5.073,-15.31 3.382,-3.79 8.286,-6.56 14.711,-8.31 4.261,-1.15 9.47,-2.45 15.625,-3.91 6.155,-1.45 11.261,-2.79 15.32,-4 l 2.922,-1.08 -14.385,-16.57 -10.858,2.84 c -3.855,0.88 -8.691,2.07 -14.508,3.55 -5.208,1.36 -9.875,3.08 -14.001,5.17 -4.126,2.1 -7.779,4.84 -10.958,8.22 -3.111,3.31 -5.5291,7.21 -7.2539,11.71 -1.7247,4.49 -2.5871,9.68 -2.5871,15.56 0,12.23 4.7685,22.49 14.305,30.77 9.537,8.28 21.712,12.42 36.525,12.42 z" /><path
       id="path24"
       style="fill:none;stroke:#a5a5a5;stroke-width:4.55999994;stroke-linecap:butt;stroke-linejoin:miter;stroke-miterlimit:10;stroke-dasharray:none;stroke-opacity:1"
       d="M 48.6,69.565 133.07,165" /><path
       id="path26"
       style="fill:none;stroke:#a5a5a5;stroke-width:4.55999994;stroke-linecap:butt;stroke-linejoin:miter;stroke-miterlimit:10;stroke-dasharray:none;stroke-opacity:1"
       d="M 121.44,160.92 223.67,53.864" /><path
       id="path28"
       style="fill:none;stroke:#a5a5a5;stroke-width:4.55999994;stroke-linecap:butt;stroke-linejoin:miter;stroke-miterlimit:10;stroke-dasharray:none;stroke-opacity:1"
       d="M 357.57,155.88 209.76,53.832" /><path
       id="path30"
       style="fill:#66a2d8;fill-opacity:1;fill-rule:evenodd;stroke:none"
       d="m 41.04,80.46 c 0,10.173 8.274,18.42 18.48,18.42 C 69.726,98.88 78,90.633 78,80.46 78,70.287 69.726,62.04 59.52,62.04 c -10.206,0 -18.48,8.247 -18.48,18.42 z" /><path
       id="path32"
       style="fill:none;stroke:#0070c0;stroke-width:6;stroke-linecap:butt;stroke-linejoin:miter;stroke-miterlimit:10;stroke-dasharray:none;stroke-opacity:1"
       d="m 41.04,80.46 c 0,10.173 8.274,18.42 18.48,18.42 C 69.726,98.88 78,90.633 78,80.46 78,70.287 69.726,62.04 59.52,62.04 c -10.206,0 -18.48,8.247 -18.48,18.42 z" /><path
       id="path34"
       style="fill:#a5a5a5;fill-opacity:1;fill-rule:evenodd;stroke:none"
       d="m 44.22,80.4 c 0,8.516 6.904,15.42 15.42,15.42 8.516,0 15.42,-6.904 15.42,-15.42 0,-8.516 -6.904,-15.42 -15.42,-15.42 -8.516,0 -15.42,6.904 -15.42,15.42 z" /><path
       id="path36"
       style="fill:none;stroke:#ffffff;stroke-width:3;stroke-linecap:butt;stroke-linejoin:miter;stroke-miterlimit:10;stroke-dasharray:none;stroke-opacity:1"
       d="m 44.22,80.4 c 0,8.516 6.904,15.42 15.42,15.42 8.516,0 15.42,-6.904 15.42,-15.42 0,-8.516 -6.904,-15.42 -15.42,-15.42 -8.516,0 -15.42,6.904 -15.42,15.42 z" /><path
       id="path38"
       style="fill:#ffffff;fill-opacity:1;fill-rule:evenodd;stroke:none"
       d="m 53.4,85.68 c 0,3.38 2.74,6.12 6.12,6.12 3.38,0 6.12,-2.74 6.12,-6.12 0,-3.38 -2.74,-6.12 -6.12,-6.12 -3.38,0 -6.12,2.74 -6.12,6.12 z" /><path
       id="path40"
       style="fill:#ffffff;fill-opacity:1;fill-rule:evenodd;stroke:none"
       d="m 57,85.68 c 0,1.392 1.128,2.52 2.52,2.52 v 0 c 1.392,0 2.52,-1.128 2.52,-2.52 V 71.76 c 0,-1.392 -1.128,-2.52 -2.52,-2.52 v 0 c -1.392,0 -2.52,1.128 -2.52,2.52 z" /><path
       id="path42"
       style="fill:#66a2d8;fill-opacity:1;fill-rule:evenodd;stroke:none"
       d="m 328.2,145.02 c 0,10.17 8.25,18.42 18.42,18.42 10.17,0 18.42,-8.25 18.42,-18.42 0,-10.17 -8.25,-18.42 -18.42,-18.42 -10.17,0 -18.42,8.25 -18.42,18.42 z" /><path
       id="path44"
       style="fill:none;stroke:#0070c0;stroke-width:6;stroke-linecap:butt;stroke-linejoin:miter;stroke-miterlimit:10;stroke-dasharray:none;stroke-opacity:1"
       d="m 328.2,145.02 c 0,10.17 8.25,18.42 18.42,18.42 10.17,0 18.42,-8.25 18.42,-18.42 0,-10.17 -8.25,-18.42 -18.42,-18.42 -10.17,0 -18.42,8.25 -18.42,18.42 z" /><path
       id="path46"
       style="fill:#a5a5a5;fill-opacity:1;fill-rule:evenodd;stroke:none"
       d="m 331.26,144.96 c 0,8.52 6.9,15.42 15.42,15.42 8.52,0 15.42,-6.9 15.42,-15.42 0,-8.52 -6.9,-15.42 -15.42,-15.42 -8.52,0 -15.42,6.9 -15.42,15.42 z" /><path
       id="path48"
       style="fill:none;stroke:#ffffff;stroke-width:3;stroke-linecap:butt;stroke-linejoin:miter;stroke-miterlimit:10;stroke-dasharray:none;stroke-opacity:1"
       d="m 331.26,144.96 c 0,8.52 6.9,15.42 15.42,15.42 8.52,0 15.42,-6.9 15.42,-15.42 0,-8.52 -6.9,-15.42 -15.42,-15.42 -8.52,0 -15.42,6.9 -15.42,15.42 z" /><path
       id="path50"
       style="fill:#ffffff;fill-opacity:1;fill-rule:evenodd;stroke:none"
       d="m 340.56,150.18 c 0,3.35 2.71,6.06 6.06,6.06 3.35,0 6.06,-2.71 6.06,-6.06 0,-3.35 -2.71,-6.06 -6.06,-6.06 -3.35,0 -6.06,2.71 -6.06,6.06 z" /><path
       id="path52"
       style="fill:#ffffff;fill-opacity:1;fill-rule:evenodd;stroke:none"
       d="m 344.04,150.18 c 0,1.42 1.16,2.58 2.58,2.58 v 0 c 1.42,0 2.58,-1.16 2.58,-2.58 v -13.8 c 0,-1.42 -1.16,-2.58 -2.58,-2.58 v 0 c -1.42,0 -2.58,1.16 -2.58,2.58 z" /><path
       id="path54"
       style="fill:#ffffff;fill-opacity:1;fill-rule:evenodd;stroke:none"
       d="m 116.16,158.04 c 0,5.5 4.43,9.96 9.9,9.96 5.47,0 9.9,-4.46 9.9,-9.96 0,-5.5 -4.43,-9.96 -9.9,-9.96 -5.47,0 -9.9,4.46 -9.9,9.96 z" /><path
       id="path56"
       style="fill:none;stroke:#0070c0;stroke-width:6;stroke-linecap:butt;stroke-linejoin:miter;stroke-miterlimit:10;stroke-dasharray:none;stroke-opacity:1"
       d="m 116.16,158.04 c 0,5.5 4.43,9.96 9.9,9.96 5.47,0 9.9,-4.46 9.9,-9.96 0,-5.5 -4.43,-9.96 -9.9,-9.96 -5.47,0 -9.9,4.46 -9.9,9.96 z" /><path
       id="path58"
       style="fill:#ffffff;fill-opacity:1;fill-rule:evenodd;stroke:none"
       d="m 206.76,60.9 c 0,5.468 4.46,9.9 9.96,9.9 5.5,0 9.96,-4.432 9.96,-9.9 0,-5.468 -4.46,-9.9 -9.96,-9.9 -5.5,0 -9.96,4.432 -9.96,9.9 z" /><path
       id="path60"
       style="fill:none;stroke:#0070c0;stroke-width:6;stroke-linecap:butt;stroke-linejoin:miter;stroke-miterlimit:10;stroke-dasharray:none;stroke-opacity:1"
       d="m 206.76,60.9 c 0,5.468 4.46,9.9 9.96,9.9 5.5,0 9.96,-4.432 9.96,-9.9 0,-5.468 -4.46,-9.9 -9.96,-9.9 -5.5,0 -9.96,4.432 -9.96,9.9 z" /></g></svg>