<?xml version="1.0" encoding="utf-8"?>
<!-- Generator: Adobe Illustrator 27.0.0, SVG Export Plug-In . SVG Version: 6.00 Build 0)  -->
<svg version="1.1" id="Ebene_1" xmlns="http://www.w3.org/2000/svg" xmlns:xlink="http://www.w3.org/1999/xlink" x="0px" y="0px"
	 viewBox="0 0 195.504 85.039" style="enable-background:new 0 0 195.504 85.039;" xml:space="preserve">
<style type="text/css">
	.st0{fill:#006EB7;}
</style>
<path class="st0" d="M65.09,24.82L43.008,67.766H22.092L0.375,24.82h21.006l11.125,28.572L44.071,24.82H65.09z M100.186,67.766
	c20.398,0,33.719-6.205,33.719-22.365c0-14.135-12.711-20.58-33.189-20.58H72.828v42.945H100.186z M93.658,34.844h3.975
	c11.119,0,15.447,2.385,15.447,11.33c0,8.109-5.301,11.57-15.012,11.57h-4.41C93.658,57.744,93.658,34.844,93.658,34.844z
	 M195.504,67.766V57.744h-32.229v-6.74h26.223V40.982h-26.223v-6.139h30.986v-10.02h-51.82v42.941h53.063V67.766z"/>
</svg>
